<svg width="40" height="40" viewBox="0 0 40 40" fill="none" xmlns="http://www.w3.org/2000/svg">
<path d="M18.3 10.3167L12.1167 4.13333C12 4.01667 11.85 3.91667 11.6833 3.85C11.6667 3.85 11.65 3.85 11.6333 3.83333C11.5 3.78333 11.3667 3.75 11.2167 3.75C10.8833 3.75 10.5667 3.88333 10.3333 4.11667L4.11665 10.3167C3.63332 10.8 3.63332 11.6 4.11665 12.0833C4.59998 12.5667 5.39998 12.5667 5.88332 12.0833L9.96665 8V35C9.96665 35.6833 10.5333 36.25 11.2167 36.25C11.9 36.25 12.4667 35.6833 12.4667 35V8.01667L16.5333 12.0833C16.7833 12.3333 17.1 12.45 17.4167 12.45C17.7333 12.45 18.05 12.3333 18.3 12.0833C18.7833 11.6 18.7833 10.8167 18.3 10.3167Z" fill="#212121"/>
<path d="M35.8832 27.9167C35.3999 27.4333 34.5999 27.4333 34.1166 27.9167L30.0332 32V5C30.0332 4.31667 29.4666 3.75 28.7832 3.75C28.0999 3.75 27.5332 4.31667 27.5332 5V31.9833L23.4666 27.9167C22.9832 27.4333 22.1832 27.4333 21.6999 27.9167C21.2166 28.4 21.2166 29.2 21.6999 29.6833L27.8832 35.8667C27.9999 35.9833 28.1499 36.0833 28.3166 36.15C28.3332 36.15 28.3499 36.15 28.3666 36.1667C28.4999 36.2167 28.6499 36.25 28.7999 36.25C29.1332 36.25 29.4499 36.1167 29.6832 35.8833L35.8832 29.6833C36.3666 29.1833 36.3666 28.4 35.8832 27.9167Z" fill="#212121"/>
</svg>
