<svg width="296" height="20" viewBox="0 0 296 20" fill="none" xmlns="http://www.w3.org/2000/svg">
<path d="M20 10H55.2" stroke="#E1E1E1" stroke-width="2" stroke-linecap="round"/>
<path d="M75 10H110.2" stroke="#E1E1E1" stroke-width="2" stroke-linecap="round"/>
<path d="M130 10H165.2" stroke="#E1E1E1" stroke-width="2" stroke-linecap="round"/>
<path d="M185 10H220.2" stroke="#E1E1E1" stroke-width="2" stroke-linecap="round"/>
<path d="M240 10H275.2" stroke="#E1E1E1" stroke-width="2" stroke-linecap="round"/>
<circle cx="286" cy="10" r="10" fill="#F66262"/>
<mask id="path-7-inside-1_6106_81707" fill="white">
<path d="M291 10C291 11.2584 290.525 12.4706 289.671 13.3946C288.817 14.3186 287.645 14.8864 286.391 14.9847C285.136 15.0831 283.891 14.7047 282.903 13.9251C281.915 13.1456 281.257 12.0221 281.061 10.7791C280.865 9.53599 281.145 8.26469 281.845 7.21888C282.545 6.17307 283.613 5.42967 284.837 5.13705C286.061 4.84443 287.351 5.0241 288.448 5.64021C289.545 6.25632 290.37 7.26356 290.757 8.4609L289.568 8.84568C289.277 7.94767 288.659 7.19224 287.836 6.73016C287.013 6.26808 286.046 6.13332 285.128 6.35279C284.21 6.57226 283.409 7.1298 282.884 7.91416C282.359 8.69852 282.149 9.65199 282.296 10.5843C282.443 11.5166 282.936 12.3592 283.677 12.9438C284.418 13.5285 285.352 13.8123 286.293 13.7385C287.234 13.6648 288.113 13.2389 288.753 12.5459C289.394 11.853 289.75 10.9438 289.75 10H291Z"/>
</mask>
<path d="M291 10C291 11.2584 290.525 12.4706 289.671 13.3946C288.817 14.3186 287.645 14.8864 286.391 14.9847C285.136 15.0831 283.891 14.7047 282.903 13.9251C281.915 13.1456 281.257 12.0221 281.061 10.7791C280.865 9.53599 281.145 8.26469 281.845 7.21888C282.545 6.17307 283.613 5.42967 284.837 5.13705C286.061 4.84443 287.351 5.0241 288.448 5.64021C289.545 6.25632 290.37 7.26356 290.757 8.4609L289.568 8.84568C289.277 7.94767 288.659 7.19224 287.836 6.73016C287.013 6.26808 286.046 6.13332 285.128 6.35279C284.21 6.57226 283.409 7.1298 282.884 7.91416C282.359 8.69852 282.149 9.65199 282.296 10.5843C282.443 11.5166 282.936 12.3592 283.677 12.9438C284.418 13.5285 285.352 13.8123 286.293 13.7385C287.234 13.6648 288.113 13.2389 288.753 12.5459C289.394 11.853 289.75 10.9438 289.75 10H291Z" stroke="url(#paint0_angular_6106_81707)" stroke-width="32" mask="url(#path-7-inside-1_6106_81707)"/>
<circle cx="230" cy="10" r="10" fill="#EDEDED"/>
<circle cx="175" cy="10" r="10" fill="#EDEDED"/>
<circle cx="120" cy="10" r="10" fill="#EDEDED"/>
<circle cx="65" cy="10" r="10" fill="#EDEDED"/>
<circle cx="10" cy="10" r="10" fill="#EDEDED"/>
<defs>
<radialGradient id="paint0_angular_6106_81707" cx="0" cy="0" r="1" gradientUnits="userSpaceOnUse" gradientTransform="translate(286 10) rotate(-37.875) scale(4.75073 4.51319)">
<stop stop-color="#EFBBBB" stop-opacity="0.7"/>
<stop offset="0.0001" stop-color="#CB1B1B" stop-opacity="0"/>
<stop offset="0.45" stop-color="white"/>
<stop offset="0.975" stop-color="#E48787" stop-opacity="0.474292"/>
<stop offset="1" stop-color="#DC6464" stop-opacity="0.321667"/>
</radialGradient>
</defs>
</svg>
