<svg width="580" height="25" viewBox="0 0 580 25" fill="none" xmlns="http://www.w3.org/2000/svg">
<path d="M469 13H555" stroke="#E1E1E1" stroke-width="2" stroke-linecap="round"/>
<path d="M136 13H222" stroke="#E1E1E1" stroke-width="2" stroke-linecap="round"/>
<path d="M247 13H333" stroke="#E1E1E1" stroke-width="2" stroke-linecap="round"/>
<path d="M358 13H444" stroke="#E1E1E1" stroke-width="2" stroke-linecap="round"/>
<circle cx="567.5" cy="12.5" r="12.5" fill="#F66262"/>
<mask id="path-6-inside-1_5354_35273" fill="white">
<path d="M573.75 12.5C573.75 14.0484 573.175 15.5416 572.137 16.6904C571.099 17.8392 569.671 18.5618 568.131 18.7181C566.59 18.8744 565.047 18.4533 563.799 17.5364C562.551 16.6195 561.688 15.2721 561.377 13.7553C561.066 12.2385 561.329 10.6602 562.116 9.32632C562.902 7.99242 564.155 6.99786 565.633 6.53535C567.111 6.07283 568.708 6.1753 570.114 6.82288C571.52 7.47047 572.636 8.61708 573.246 10.0405L571.809 10.6554C571.352 9.58781 570.515 8.72785 569.46 8.24216C568.406 7.75647 567.208 7.67963 566.1 8.02651C564.992 8.3734 564.051 9.11932 563.462 10.1197C562.872 11.1202 562.675 12.3039 562.908 13.4415C563.141 14.5791 563.788 15.5896 564.724 16.2773C565.66 16.965 566.818 17.2808 567.973 17.1636C569.129 17.0463 570.199 16.5044 570.978 15.6428C571.756 14.7812 572.188 13.6613 572.188 12.5H573.75Z"/>
</mask>
<path d="M573.75 12.5C573.75 14.0484 573.175 15.5416 572.137 16.6904C571.099 17.8392 569.671 18.5618 568.131 18.7181C566.59 18.8744 565.047 18.4533 563.799 17.5364C562.551 16.6195 561.688 15.2721 561.377 13.7553C561.066 12.2385 561.329 10.6602 562.116 9.32632C562.902 7.99242 564.155 6.99786 565.633 6.53535C567.111 6.07283 568.708 6.1753 570.114 6.82288C571.52 7.47047 572.636 8.61708 573.246 10.0405L571.809 10.6554C571.352 9.58781 570.515 8.72785 569.46 8.24216C568.406 7.75647 567.208 7.67963 566.1 8.02651C564.992 8.3734 564.051 9.11932 563.462 10.1197C562.872 11.1202 562.675 12.3039 562.908 13.4415C563.141 14.5791 563.788 15.5896 564.724 16.2773C565.66 16.965 566.818 17.2808 567.973 17.1636C569.129 17.0463 570.199 16.5044 570.978 15.6428C571.756 14.7812 572.188 13.6613 572.188 12.5H573.75Z" stroke="url(#paint0_angular_5354_35273)" stroke-width="32" mask="url(#path-6-inside-1_5354_35273)"/>
<circle cx="456.5" cy="12.5" r="12.5" fill="#EDEDED"/>
<circle cx="234.5" cy="12.5" r="12.5" fill="#EDEDED"/>
<circle cx="345.5" cy="12.5" r="12.5" fill="#EDEDED"/>
<circle cx="123.5" cy="12.5" r="12.5" fill="#EDEDED"/>
<circle cx="12.5" cy="12.5" r="12.5" fill="#EDEDED"/>
<path d="M25 13H111" stroke="#E1E1E1" stroke-width="2" stroke-linecap="round"/>
<defs>
<radialGradient id="paint0_angular_5354_35273" cx="0" cy="0" r="1" gradientUnits="userSpaceOnUse" gradientTransform="translate(567.5 12.5) rotate(-37.875) scale(5.93841 5.64149)">
<stop stop-color="#EFBBBB" stop-opacity="0.7"/>
<stop offset="0.0001" stop-color="#CB1B1B" stop-opacity="0"/>
<stop offset="0.45" stop-color="white"/>
<stop offset="0.975" stop-color="#E48787" stop-opacity="0.474292"/>
<stop offset="1" stop-color="#DC6464" stop-opacity="0.321667"/>
</radialGradient>
</defs>
</svg>
