<svg width="580" height="25" viewBox="0 0 580 25" fill="none" xmlns="http://www.w3.org/2000/svg">
<rect width="580" height="25" fill="white"/>
<path d="M469 13H555" stroke="#F66262" stroke-width="2" stroke-linecap="round"/>
<path d="M136 13H222" stroke="#E1E1E1" stroke-width="2" stroke-linecap="round"/>
<path d="M247 13H333" stroke="#E1E1E1" stroke-width="2" stroke-linecap="round"/>
<path d="M358 13H444" stroke="#E1E1E1" stroke-width="2" stroke-linecap="round"/>
<circle cx="567.5" cy="12.5" r="12.5" fill="#F66262"/>
<path d="M562.354 11.4392L566.275 16.1765" stroke="#FDF1F1" stroke-width="2" stroke-linecap="round" stroke-linejoin="round"/>
<path d="M566.275 16.1765L572.772 8.33335" stroke="#FDF1F1" stroke-width="2" stroke-linecap="round" stroke-linejoin="round"/>
<circle cx="456.5" cy="12.5" r="12.5" fill="#F66262"/>
<mask id="path-9-inside-1_5354_35301" fill="white">
<path d="M462.75 12.5C462.75 14.0731 462.157 15.5883 461.089 16.7432C460.021 17.8982 458.557 18.608 456.988 18.7309C455.42 18.8538 453.863 18.3809 452.628 17.4064C451.393 16.432 450.571 15.0277 450.326 13.4738C450.081 11.92 450.431 10.3309 451.306 9.0236C452.181 7.71634 453.517 6.78709 455.047 6.42131C456.577 6.05553 458.188 6.28013 459.56 7.05027C460.932 7.82041 461.962 9.07945 462.447 10.5761L460.96 11.0571C460.597 9.93459 459.824 8.9903 458.795 8.4127C457.766 7.83509 456.557 7.66665 455.41 7.94099C454.263 8.21532 453.261 8.91225 452.605 9.8927C451.948 10.8731 451.686 12.065 451.87 13.2304C452.054 14.3958 452.67 15.449 453.596 16.1798C454.522 16.9106 455.69 17.2654 456.866 17.1732C458.042 17.081 459.141 16.5486 459.942 15.6824C460.743 14.8162 461.188 13.6798 461.188 12.5H462.75Z"/>
</mask>
<path d="M462.75 12.5C462.75 14.0731 462.157 15.5883 461.089 16.7432C460.021 17.8982 458.557 18.608 456.988 18.7309C455.42 18.8538 453.863 18.3809 452.628 17.4064C451.393 16.432 450.571 15.0277 450.326 13.4738C450.081 11.92 450.431 10.3309 451.306 9.0236C452.181 7.71634 453.517 6.78709 455.047 6.42131C456.577 6.05553 458.188 6.28013 459.56 7.05027C460.932 7.82041 461.962 9.07945 462.447 10.5761L460.96 11.0571C460.597 9.93459 459.824 8.9903 458.795 8.4127C457.766 7.83509 456.557 7.66665 455.41 7.94099C454.263 8.21532 453.261 8.91225 452.605 9.8927C451.948 10.8731 451.686 12.065 451.87 13.2304C452.054 14.3958 452.67 15.449 453.596 16.1798C454.522 16.9106 455.69 17.2654 456.866 17.1732C458.042 17.081 459.141 16.5486 459.942 15.6824C460.743 14.8162 461.188 13.6798 461.188 12.5H462.75Z" stroke="url(#paint0_angular_5354_35301)" stroke-width="32" mask="url(#path-9-inside-1_5354_35301)"/>
<circle cx="234.5" cy="12.5" r="12.5" fill="#EDEDED"/>
<circle cx="345.5" cy="12.5" r="12.5" fill="#EDEDED"/>
<circle cx="123.5" cy="12.5" r="12.5" fill="#EDEDED"/>
<circle cx="12.5" cy="12.5" r="12.5" fill="#EDEDED"/>
<path d="M25 13H111" stroke="#E1E1E1" stroke-width="2" stroke-linecap="round"/>
<defs>
<radialGradient id="paint0_angular_5354_35301" cx="0" cy="0" r="1" gradientUnits="userSpaceOnUse" gradientTransform="translate(456.5 12.5) rotate(-37.875) scale(5.93841 5.64149)">
<stop stop-color="#EFBBBB" stop-opacity="0.7"/>
<stop offset="0.0001" stop-color="#CB1B1B" stop-opacity="0"/>
<stop offset="0.45" stop-color="white"/>
<stop offset="0.975" stop-color="#E48787" stop-opacity="0.474292"/>
<stop offset="1" stop-color="#DC6464" stop-opacity="0.321667"/>
</radialGradient>
</defs>
</svg>
