<svg width="90" height="82" viewBox="0 0 90 82" fill="none" xmlns="http://www.w3.org/2000/svg">
<g clip-path="url(#clip0_6185_49689)">
<path d="M59.321 16.7586C54.1996 9.76107 46.7544 6.5 38.9739 6.5C38.9739 6.5 19.9471 6.5 14.3123 23.4185C12.2314 29.6536 12.6938 36.4238 15.2141 42.4959C16.1603 44.8042 17.3524 47.0053 18.7702 49.0616C23.6928 56.112 38.9901 75.3592 38.9901 75.3592H42.315C46.5833 69.4709 57.3279 49.9113 60.5465 43.6395C64.5812 35.7693 65.2009 24.7919 59.321 16.7586ZM42.1578 48.0535C38.9429 48.0535 35.8001 47.1066 33.127 45.3324C30.4539 43.5584 28.3705 41.0368 27.1403 38.0866C25.9101 35.1364 25.5883 31.8901 26.2157 28.7583C26.8431 25.6265 28.3914 22.7498 30.6649 20.492C32.9384 18.2343 35.8348 16.6969 38.9881 16.0742C42.1414 15.4515 45.4096 15.7715 48.3798 16.9938C51.3499 18.2161 53.8883 20.2858 55.6741 22.941C57.4599 25.5963 58.4128 28.7179 58.4124 31.9111C58.4117 36.1926 56.6989 40.2984 53.6507 43.3256C50.6024 46.3528 46.4684 48.0535 42.1578 48.0535Z" fill="#E43434"/>
<path opacity="0.4" d="M59.321 16.7586C54.1996 9.76107 46.7544 6.5 38.9739 6.5C38.9739 6.5 19.9471 6.5 14.3123 23.4185C12.2314 29.6536 12.6938 36.4238 15.2141 42.4959C16.1603 44.8042 17.3524 47.0053 18.7702 49.0616C23.6928 56.112 38.9901 75.3592 38.9901 75.3592H42.315C46.5833 69.4709 57.3279 49.9113 60.5465 43.6395C64.5812 35.7693 65.2009 24.7919 59.321 16.7586ZM42.1578 48.0535C38.9429 48.0535 35.8001 47.1066 33.127 45.3324C30.4539 43.5584 28.3705 41.0368 27.1403 38.0866C25.9101 35.1364 25.5883 31.8901 26.2157 28.7583C26.8431 25.6265 28.3914 22.7498 30.6649 20.492C32.9384 18.2343 35.8348 16.6969 38.9881 16.0742C42.1414 15.4515 45.4096 15.7715 48.3798 16.9938C51.3499 18.2161 53.8883 20.2858 55.6741 22.941C57.4599 25.5963 58.4128 28.7179 58.4124 31.9111C58.4117 36.1926 56.6989 40.2984 53.6507 43.3256C50.6024 46.3528 46.4684 48.0535 42.1578 48.0535Z" fill="#353535"/>
<path d="M62.6646 16.8901C57.5432 9.89487 50.0979 6.63379 42.3175 6.63379C42.3175 6.63379 23.2906 6.63379 17.6559 23.5524C15.5749 29.7874 16.0374 36.5576 18.5599 42.6296C19.5049 44.9381 20.6963 47.1393 22.1137 49.1955C27.0364 56.2435 42.3267 75.4999 42.3267 75.4999C42.3267 75.4999 59.994 51.3611 63.8831 43.7825C67.9248 35.8985 68.5468 24.9256 62.6646 16.8901ZM42.1765 48.1872C38.9616 48.1872 35.819 47.2404 33.1459 45.4664C30.4728 43.6924 28.3894 41.1709 27.1592 38.2209C25.929 35.2708 25.607 32.0247 26.2342 28.893C26.8614 25.7612 28.4095 22.8845 30.6827 20.6267C32.956 18.3688 35.8523 16.8312 39.0053 16.2082C42.1584 15.5853 45.4267 15.905 48.3968 17.127C51.3669 18.3489 53.9055 20.4182 55.6917 23.0732C57.4777 25.7281 58.431 28.8496 58.431 32.0427C58.447 34.1672 58.0375 36.2737 57.2263 38.2397C56.4151 40.2056 55.2184 41.9917 53.7058 43.494C52.1933 44.9964 50.395 46.185 48.4157 46.9907C46.4364 47.7964 44.3155 48.2031 42.1765 48.1872Z" fill="#E43434"/>
<path d="M42.1564 15.766C38.7974 15.766 35.5209 16.7996 32.7775 18.7246C30.034 20.6496 27.9584 23.3716 26.8359 26.5161C28.0901 23.7631 30.2173 21.4937 32.8925 20.0549C35.5677 18.616 38.6437 18.0869 41.6502 18.5483C44.6569 19.0097 47.4286 20.4362 49.5418 22.6099C51.6551 24.7835 52.9935 27.5848 53.3527 30.5853C53.7118 33.5858 53.0718 36.6207 51.5305 39.2258C49.9892 41.831 47.6314 43.8632 44.8175 45.0118C42.0036 46.1604 38.8885 46.3623 35.9482 45.5864C33.008 44.8106 30.4044 43.0998 28.5354 40.7156C30.0718 43.0595 32.195 44.9668 34.6969 46.2504C37.1989 47.534 39.9936 48.1499 42.8074 48.0377C45.6211 47.9255 48.3571 47.0891 50.7475 45.6105C53.1377 44.1319 55.1002 42.0618 56.4425 39.6031C57.7849 37.1444 58.461 34.3814 58.4046 31.585C58.3481 28.7886 57.5612 26.0548 56.1208 23.6515C54.6804 21.2481 52.636 19.2577 50.1881 17.8754C47.74 16.493 44.9724 15.7662 42.1564 15.766Z" fill="#E43434"/>
</g>
<defs>
<clipPath id="clip0_6185_49689">
<rect width="54" height="69" fill="white" transform="translate(13 6.5)"/>
</clipPath>
</defs>
</svg>
