<svg width="82" height="82" viewBox="0 0 82 82" fill="none" xmlns="http://www.w3.org/2000/svg">
<g filter="url(#filter0_d_6185_47932)">
<rect x="10" y="7" width="62" height="62" rx="31" fill="white"/>
<rect x="10.5" y="7.5" width="61" height="61" rx="30.5" stroke="#F9F9F9"/>
<path d="M44.7496 48.8374C44.5121 48.8374 44.2746 48.7499 44.0871 48.5624L35.9371 40.4124C34.6121 39.0874 34.6121 36.9124 35.9371 35.5874L44.0871 27.4374C44.4496 27.0749 45.0496 27.0749 45.4121 27.4374C45.7746 27.7999 45.7746 28.3999 45.4121 28.7624L37.2621 36.9124C36.6621 37.5124 36.6621 38.4874 37.2621 39.0874L45.4121 47.2374C45.7746 47.5999 45.7746 48.1999 45.4121 48.5624C45.2246 48.7374 44.9871 48.8374 44.7496 48.8374Z" fill="#353535"/>
</g>
<defs>
<filter id="filter0_d_6185_47932" x="0" y="0" width="82" height="82" filterUnits="userSpaceOnUse" color-interpolation-filters="sRGB">
<feFlood flood-opacity="0" result="BackgroundImageFix"/>
<feColorMatrix in="SourceAlpha" type="matrix" values="0 0 0 0 0 0 0 0 0 0 0 0 0 0 0 0 0 0 127 0" result="hardAlpha"/>
<feOffset dy="3"/>
<feGaussianBlur stdDeviation="5"/>
<feComposite in2="hardAlpha" operator="out"/>
<feColorMatrix type="matrix" values="0 0 0 0 0 0 0 0 0 0 0 0 0 0 0 0 0 0 0.2 0"/>
<feBlend mode="normal" in2="BackgroundImageFix" result="effect1_dropShadow_6185_47932"/>
<feBlend mode="normal" in="SourceGraphic" in2="effect1_dropShadow_6185_47932" result="shape"/>
</filter>
</defs>
</svg>
